PathFileType	4	(X/Y/Z)	C:\Users\Basilio\Documents\Thesis Gigler\squatting_fais\c3dfiles\054\SJ_pre4\markers_experimental.trc
DataRate	CameraRate	NumFrames	NumMarkers	Units	OrigDataRate	OrigDataStartFrame	OrigNumFrames
200.000000	200.000000	4	61	mm	200.000000	395	1582
Frame#	Time	FHD			LBHD			RBHD			C7			T10			CLAV			LSHO			LUUPA			LMUPA			LDUPA			LLEP			LMEP			LRAD			LUL			LRFIN			RSHO			RUPA1			RMUPA			RDUPA			RLEP			RMEP			RRAD			RUL			RUFIN			LASI			RASI			USACR			LSACR			RSACR			LTHI1			LTHI2			LTHI3			LTHI4			LLFC			LMFC			LTIB1			LTIB2			LTIB3			LTIB4			LLMAL			LMMAL			LHEE			LMT1			LMT2			LMT5			RTHI			RTHI2			RTHI3			RTHI4			RLFC			RMFC			RTIB1			RTIB2			RTIB3			RTIB4			RLMAL			RMMAL			RHEE			RMT1			RMT2			RMT5			
		X1	Y1	Z1	X2	Y2	Z2	X3	Y3	Z3	X4	Y4	Z4	X5	Y5	Z5	X6	Y6	Z6	X7	Y7	Z7	X8	Y8	Z8	X9	Y9	Z9	X10	Y10	Z10	X11	Y11	Z11	X12	Y12	Z12	X13	Y13	Z13	X14	Y14	Z14	X15	Y15	Z15	X16	Y16	Z16	X17	Y17	Z17	X18	Y18	Z18	X19	Y19	Z19	X20	Y20	Z20	X21	Y21	Z21	X22	Y22	Z22	X23	Y23	Z23	X24	Y24	Z24	X25	Y25	Z25	X26	Y26	Z26	X27	Y27	Z27	X28	Y28	Z28	X29	Y29	Z29	X30	Y30	Z30	X31	Y31	Z31	X32	Y32	Z32	X33	Y33	Z33	X34	Y34	Z34	X35	Y35	Z35	X36	Y36	Z36	X37	Y37	Z37	X38	Y38	Z38	X39	Y39	Z39	X40	Y40	Z40	X41	Y41	Z41	X42	Y42	Z42	X43	Y43	Z43	X44	Y44	Z44	X45	Y45	Z45	X46	Y46	Z46	X47	Y47	Z47	X48	Y48	Z48	X49	Y49	Z49	X50	Y50	Z50	X51	Y51	Z51	X52	Y52	Z52	X53	Y53	Z53	X54	Y54	Z54	X55	Y55	Z55	X56	Y56	Z56	X57	Y57	Z57	X58	Y58	Z58	X59	Y59	Z59	X60	Y60	Z60	X61	Y61	Z61	

396	1.975	-21.45002174377442	1608.665283203125	-887.4378051757815	-173.6126251220703	1536.476928710938	-962.1152954101565	-194.190414428711	1532.237670898438	-823.5706787109377	-230.8273162841797	1420.167358398438	-883.4810180664065	-405.8491821289064	1134.2080078125	-908.0049438476565	-126.1123352050782	1307.498901367188	-888.6516113281252	-150.6143035888672	1387.432373046875	-1043.138305664063	-270.1250000000001	1313.464477539063	-1227.104858398438	-249.8773651123047	1267.682739257813	-1235.156005859375	-295.7588500976563	1268.366088867188	-1274.772827148438	-313.5783996582032	1208.26904296875	-1300.212768554688	-393.3768920898439	1218.79638671875	-1259.157104492188	-373.9270629882813	1002.623840332031	-1142.87451171875	-340.5072937011719	953.7959594726565	-1192.339721679688	-327.3127441406251	987.258728027344	-1094.348510742188	-147.3983306884766	1369.117553710938	-724.4571533203126	-296.5032043457032	1274.86767578125	-558.4970703125001	-290.9641723632813	1225.638793945313	-556.9530029296876	-342.1414184570313	1232.19775390625	-526.4397583007814	-373.0563964843751	1190.74609375	-515.0919799804689	-434.4971008300782	1216.481567382813	-570.9251708984376	-437.4350891113282	993.6232910156252	-697.9711914062501	-372.2461853027344	985.546325683594	-716.7496948242189	-411.6723937988282	947.2901611328127	-639.1245117187501	-303.8116149902344	899.7412109375002	-1023.765869140625	-312.6228942871094	900.1934204101565	-774.0758056640627	-449.7464294433595	1050.772216796875	-909.9199218750002	-465.8830871582032	1023.635375976563	-939.4522705078127	-469.1301574707032	1022.182434082031	-881.9321289062502	-379.5438232421876	733.5652465820314	-1170.204833984375	-319.9911499023438	679.7307739257814	-1198.834594726563	-280.3518371582032	703.0523071289064	-1200.482177734375	-320.2876281738282	618.9200439453126	-1199.010131835938	-255.4344635009766	487.1607360839845	-1223.439086914063	-186.2471466064453	469.526092529297	-1108.823486328125	-236.4990539550782	320.0554809570313	-1200.043090820313	-311.8663635253907	293.6388244628907	-1240.679443359375	-271.5431213378907	278.9013366699219	-1227.664916992188	-287.1203613281251	203.6838989257813	-1194.414916992188	-390.4636535644532	88.01855468750001	-1221.541381835938	-333.3764038085938	100.3919296264649	-1140.641357421875	-442.1344299316407	51.35507202148439	-1150.1982421875	-224.6750488281251	55.00162506103517	-1195.826049804688	-232.5093994140626	58.5155601501465	-1244.852905273438	-293.8628845214844	36.71423339843751	-1283.0966796875	-375.0581665039063	676.0302124023439	-634.4750366210939	-321.9212646484376	647.4030151367189	-606.4493408203126	-292.0339660644532	662.1965942382814	-603.0872802734376	-307.1832275390626	563.3981323242189	-608.3371582031251	-286.4204406738282	485.7367248535157	-590.4878540039064	-196.8272399902344	485.5867614746095	-692.9821166992189	-254.3294372558594	375.3251953125001	-573.7374267578126	-348.9495239257813	322.1573181152344	-575.0039672851564	-306.4141845703126	304.6210632324219	-567.4329833984376	-296.1006164550782	251.6716613769532	-586.5886230468751	-392.8666992187501	89.1771926879883	-592.9538574218751	-330.1754760742188	102.583251953125	-663.2049560546876	-436.4030151367189	47.88416290283204	-667.7197265625001	-219.3888854980469	54.37163543701173	-603.9467163085939	-233.8258056640626	56.78578948974611	-558.3385620117189	-294.3244323730469	33.08834838867188	-527.3924560546876	
397	1.98	-19.32979011535645	1604.288452148438	-887.5784912109377	-171.6938018798828	1532.591186523438	-962.1453247070315	-192.1814270019532	1528.529296875	-823.5258789062502	-228.9930419921876	1416.64453125	-883.363464355469	-405.8048706054689	1131.773071289063	-907.9981689453127	-124.642807006836	1303.369262695313	-888.672302246094	-149.115234375	1383.53125	-1043.010620117188	-268.8433837890626	1310.55908203125	-1227.158081054688	-248.8743438720704	1264.572509765625	-1235.174560546875	-295.0767517089844	1265.693359375	-1274.895751953125	-312.9588623046876	1205.61865234375	-1300.175903320313	-392.7747497558595	1216.5859375	-1259.262573242188	-374.2615966796876	1000.370544433594	-1142.950073242188	-341.3396301269532	951.2124633789065	-1192.231323242188	-327.9567565917969	984.6931152343752	-1094.355834960938	-145.7231140136719	1364.955444335938	-724.5780639648439	-295.3014221191407	1271.585571289063	-558.3458862304689	-289.7796936035157	1222.311157226563	-557.0756835937501	-341.1513061523438	1229.112915039063	-526.2102050781251	-372.3295288085938	1188.009033203125	-515.0424804687501	-433.552215576172	1214.04052734375	-570.6583251953126	-437.8321838378907	991.2844848632815	-698.0524291992189	-372.9723205566407	982.898864746094	-716.7623291015626	-412.3231201171876	944.667663574219	-639.3685302734376	-305.1954650878907	896.9410400390627	-1023.896667480469	-313.6666564941407	897.4093017578127	-774.1531982421877	-450.0061645507814	1048.573852539063	-909.9793090820315	-466.6231994628907	1021.656127929688	-939.3630371093752	-469.6283264160157	1020.2470703125	-881.9712524414065	-380.2781677246094	731.9085083007814	-1170.642333984375	-319.9906616210938	678.3534545898439	-1199.37158203125	-280.2822570800782	701.8540039062501	-1201.017822265625	-320.3376770019532	617.3510742187501	-1199.317504882813	-254.4981842041016	486.6795043945314	-1224.0087890625	-184.822509765625	469.2841186523439	-1109.575439453125	-235.4707183837891	319.1864929199219	-1200.678833007813	-311.1904296875001	293.3514099121094	-1241.132202148438	-271.0425720214844	278.3403015136719	-1228.19970703125	-286.5915832519532	203.5334625244141	-1194.740356445313	-390.4525451660157	87.98564910888673	-1221.602661132813	-333.3644104003907	100.3932495117188	-1140.6416015625	-442.1529235839845	51.38504791259767	-1150.216918945313	-224.6538238525391	54.96952056884767	-1195.814208984375	-232.0795898437501	58.80650711059572	-1244.947265625	-293.8945312500001	36.7004623413086	-1283.09130859375	-375.1379089355469	674.6968994140626	-633.9870605468751	-321.7859497070313	646.8276367187501	-606.1110229492189	-291.8881225585938	661.4791259765626	-602.6083984375001	-306.7362976074219	562.5162353515626	-607.4570312500001	-285.5353393554688	485.3796997070314	-589.4648437500001	-195.8234252929688	485.2700805664064	-692.1322021484376	-253.4707031250001	374.9154052734376	-572.9891967773439	-348.3957824707032	321.9206848144532	-574.3950805664064	-305.9317016601563	304.3645935058594	-566.9295654296876	-295.4350891113282	251.2695770263672	-586.1763305664064	-392.7048645019532	89.0222625732422	-593.1095581054689	-330.0643310546876	102.5845718383789	-663.1206054687501	-436.4188842773439	47.86436080932618	-667.7395019531251	-219.3730468750001	54.40601348876955	-603.9512329101564	-233.805892944336	56.77014923095705	-558.2911376953126	-294.3133239746094	33.07279205322266	-527.3424072265626	
398	1.985	-17.4596004486084	1600.041381835938	-887.5325927734377	-169.926742553711	1528.6796875	-962.0994873046877	-189.9479064941407	1524.703125	-823.6011962890627	-227.6224212646485	1413.419677734375	-883.2830810546877	-405.6350097656251	1129.33056640625	-908.0783691406252	-123.563346862793	1299.755493164063	-888.750915527344	-147.510482788086	1379.708374023438	-1043.084716796875	-267.7189636230469	1307.673095703125	-1227.198974609375	-246.9234924316407	1261.760498046875	-1235.827026367188	-293.5535583496094	1262.803955078125	-1274.90966796875	-312.3048706054688	1202.89404296875	-1300.386840820313	-392.0178527832032	1214.343872070313	-1259.544067382813	-374.9182739257813	998.043884277344	-1143.062377929688	-341.8049926757813	948.9175415039065	-1192.140502929688	-329.1865539550782	982.1868896484377	-1094.411743164063	-144.2156219482422	1361.217895507813	-724.6281127929689	-294.0397338867188	1268.223999023438	-558.4144897460939	-288.7607116699219	1218.768798828125	-556.9716186523439	-340.1387329101563	1226.155151367188	-525.7760620117189	-371.3080139160157	1184.994262695313	-514.8630981445314	-432.561248779297	1211.564575195313	-570.5068969726564	-438.4143371582032	988.9970703125002	-698.0700683593751	-373.4649658203126	980.300720214844	-716.8876953125001	-413.2516479492189	942.312683105469	-639.3276367187501	-306.0834350585938	894.188659667969	-1024.095825195313	-315.0193786621094	894.5432739257815	-774.3190917968752	-450.4747009277345	1046.425170898438	-909.912048339844	-466.8051757812501	1019.498413085938	-939.5219726562502	-470.2676696777345	1018.077087402344	-881.875183105469	-380.7007446289063	730.0268554687501	-1171.036254882813	-320.1839599609376	677.1920776367189	-1199.742431640625	-280.5298461914063	700.7740478515626	-1201.318115234375	-320.0189819335938	616.1730346679689	-1200.0244140625	-253.2573547363282	486.0256958007814	-1224.736572265625	-183.6952819824219	468.9073486328126	-1110.141723632813	-234.8771514892579	318.7199096679688	-1201.077514648438	-310.4501037597657	293.1224365234376	-1241.623046875	-270.0514526367188	278.1593933105469	-1228.490844726563	-286.1066894531251	203.3109893798829	-1195.015625	-390.3108825683595	87.8856658935547	-1221.703247070313	-333.3594970703126	100.3836975097657	-1140.682983398438	-442.1192016601564	51.34079742431642	-1150.209106445313	-224.6475677490235	54.96108627319337	-1195.826904296875	-232.4221649169922	58.49934387207033	-1244.885131835938	-293.8866882324219	36.68525695800782	-1283.164672851563	-375.4368591308594	673.5767822265626	-633.3279418945314	-321.6335144042969	645.7336425781251	-605.6570434570314	-291.9364013671876	660.8717041015626	-601.9803466796876	-305.9875793457032	561.6984863281251	-606.5082397460939	-284.2239990234376	484.9155883789064	-588.6008911132814	-194.9504394531251	484.7506713867189	-691.3581542968751	-252.7905883789063	374.2523803710938	-572.1546020507814	-347.6412658691407	321.7092895507813	-573.6915283203126	-305.1248168945313	304.0109558105469	-566.2274780273439	-294.9826049804688	250.9625701904297	-585.6954345703126	-392.6118469238282	89.00264739990236	-593.0296020507814	-330.0082702636719	102.5722808837891	-663.0900878906251	-436.4018859863282	47.88561248779298	-667.7308959960939	-219.4232788085938	54.33876800537111	-603.9036865234376	-233.8085021972657	56.78489685058595	-558.2749023437501	-294.3201599121094	33.02255249023438	-527.3782958984376	
399	1.99	-15.18430423736573	1595.903442382813	-887.6436157226565	-167.7720642089844	1524.862060546875	-962.153259277344	-187.9895172119141	1520.775268554688	-823.5772705078127	-225.893539428711	1409.869384765625	-883.2939453125002	-405.4747924804689	1126.801025390625	-908.0869750976565	-122.2319946289063	1295.636962890625	-888.898864746094	-146.0120697021485	1375.983520507813	-1043.099487304688	-266.5175476074219	1304.707763671875	-1227.152221679688	-245.9837341308594	1258.688110351563	-1235.793334960938	-292.4475708007813	1259.949096679688	-1275.044677734375	-311.6397705078126	1200.234497070313	-1300.436401367188	-391.5020141601564	1212.150268554688	-1259.594482421875	-375.2540893554688	995.6460571289065	-1143.129272460938	-342.7042541503907	946.197692871094	-1192.285278320313	-329.1306152343751	979.3879394531252	-1094.306762695313	-142.6288146972657	1357.052001953125	-724.7028808593751	-292.7545166015626	1264.964477539063	-558.3010864257814	-287.6359558105469	1215.60302734375	-557.0593261718751	-338.7254638671876	1223.051147460938	-526.1311645507814	-370.3726196289063	1182.203735351563	-514.9507446289064	-431.7138977050782	1209.042358398438	-570.3900146484376	-438.8699035644532	986.7156982421877	-698.0703125000001	-374.0721435546876	977.5306396484377	-716.9218750000001	-413.8267517089845	939.7566528320315	-639.4382324218751	-307.0491943359376	891.5874633789065	-1024.284912109375	-315.8901062011719	891.5954589843752	-774.3765869140627	-450.8988647460939	1044.225830078125	-909.8297119140627	-467.428436279297	1017.399658203125	-939.5646972656252	-470.9237060546876	1015.984619140625	-881.9873046875002	-381.4318847656251	728.5101318359376	-1171.181884765625	-320.2642822265626	675.8438720703126	-1200.28515625	-280.6842041015626	699.9671020507814	-1201.830444335938	-319.5879821777344	614.8865966796876	-1200.663696289063	-252.0804138183594	485.460662841797	-1225.499633789063	-183.2625122070313	468.426727294922	-1111.277221679688	-233.9921875000001	318.3719482421876	-1201.4814453125	-309.6580200195313	292.8832702636719	-1242.0146484375	-269.4961547851563	277.7586669921876	-1228.98779296875	-285.7624206542969	203.0508117675782	-1195.31982421875	-390.2652587890626	87.92870330810548	-1221.682495117188	-333.3587036132813	100.4034881591797	-1140.706176757813	-442.1616821289064	51.33087158203126	-1150.249267578125	-224.5936584472657	54.97248458862306	-1195.869140625	-232.4737243652344	58.47811889648439	-1244.913940429688	-293.8772888183594	36.66981506347657	-1283.14892578125	-375.5003967285157	672.2943725585939	-632.8302001953126	-321.4243774414063	644.7440795898439	-604.9356689453126	-291.7070007324219	660.2415771484376	-601.5722045898439	-305.4618225097657	561.0546264648439	-605.5521850585939	-283.4596862792969	484.6120605468751	-587.7868041992189	-194.170150756836	484.4426574707032	-690.4384765625001	-251.9016723632813	373.8498840332032	-571.3883056640626	-347.0144348144532	321.5537414550782	-573.0656738281251	-304.4042968750001	303.5995788574219	-565.8206176757814	-294.2547912597657	250.7110443115235	-585.4477539062501	-392.4785766601564	88.99878692626955	-592.9510498046876	-329.9330444335938	102.6300506591797	-663.0189819335939	-436.380584716797	47.86699676513673	-667.7677612304689	-219.3980407714844	54.36532974243165	-603.8612670898439	-233.7933654785157	56.76337051391603	-558.2666015625001	-294.3334350585938	33.00776290893555	-527.3380126953126	
